# xmcd
#
# Track frame offsets: 
#        150
#        20760
#        42378
#        61902
#        80487
#        96046
#        121803
#        140117
#        158922
#
# Disc length: 2560 seconds
#
# Revision: 0
# Processed by: cddbd v1.5.2PL0 Copyright (c) Steve Scherf et al.
# Submitted via: ExactAudioCopy v0.95a5
#
DISCID=7609fe09
DTITLE=Eric Tessmer Band - Blues Bullets
DYEAR=2006
DGENRE=Blues
TTITLE0=Rebuttal
TTITLE1=Blues Bullets
TTITLE2=Ain't With You
TTITLE3=Every Time
TTITLE4=Origin
TTITLE5=Blind Eye Blues
TTITLE6=The Reverse
TTITLE7=White Chinese Hair
TTITLE8=Noise Song
EXTD=
EXTT0=
EXTT1=
EXTT2=
EXTT3=
EXTT4=
EXTT5=
EXTT6=
EXTT7=
EXTT8=
PLAYORDER=
